<svg id="Group_2_Copy" data-name="Group 2 Copy" xmlns="http://www.w3.org/2000/svg" width="48" height="48" viewBox="0 0 48 48">
  <defs>
    <style>
      .cls-1 {
        fill: #d3135a;
      }

      .cls-2 {
        fill: #fff;
      }
    </style>
  </defs>
  <circle id="Oval" class="cls-1" cx="24" cy="24" r="24" transform="translate(0 0)"/>
  <path id="Path" class="cls-2" d="M21.758,26.769h-.083a13.46,13.46,0,0,1-6.246-2.312,41.336,41.336,0,0,1-7.209-5.92,41.293,41.293,0,0,1-5.915-7.216A13.557,13.557,0,0,1,0,5.077a1.689,1.689,0,0,1,.1-.67C.583,3.058,3.006,1.092,3.894.444,3.9.444,3.9.437,3.909.437A2.4,2.4,0,0,1,5.278,0a2.087,2.087,0,0,1,.384.03A1.731,1.731,0,0,1,6.776.753c.489.708,3,4.527,3.454,5.235a1.736,1.736,0,0,1,.271.9,2.887,2.887,0,0,1-.361,1.4c-.023.038-.075.158-.135.279a8.282,8.282,0,0,1-1.37,2.3c-.489.452-1.129,1-1.159,1.024L6.241,10.462c.008-.008.64-.55,1.106-.979A9.613,9.613,0,0,0,8.3,7.751c.075-.158.128-.271.166-.346a1.284,1.284,0,0,0,.15-.429C8.115,6.206,5.8,2.7,5.256,1.891a.528.528,0,0,0-.271.09,12.226,12.226,0,0,0-3.1,3.043,12,12,0,0,0,2.024,5.31,39.4,39.4,0,0,0,5.644,6.877,39.378,39.378,0,0,0,6.87,5.649,12.1,12.1,0,0,0,5.305,2.034,5.686,5.686,0,0,0,1.385-1.16,19.593,19.593,0,0,0,1.64-1.951c.008-.008.008-.015.015-.023a.887.887,0,0,0,.09-.241c-.805-.55-4.364-2.915-5.079-3.367a1.2,1.2,0,0,0-.429.143c-.346.188-1.46.813-2.3,1.3l-.474.249a.939.939,0,0,1-1.008-.045l-.444-.316A33.2,33.2,0,0,1,10.944,15.8c-.911-.911-1.723-1.778-2.4-2.584l1.437-1.228c.655.761,1.422,1.6,2.3,2.478A31.651,31.651,0,0,0,16.167,17.9c.391-.226,1.851-1.062,2.318-1.3a2.907,2.907,0,0,1,1.332-.362,1.67,1.67,0,0,1,.346.03,1.729,1.729,0,0,1,.6.233c.662.414,4.6,3.035,5.252,3.48a1.738,1.738,0,0,1,.73,1.152,2.51,2.51,0,0,1-.3,1.491,1.856,1.856,0,0,1-.166.256,21.494,21.494,0,0,1-1.8,2.139,6.513,6.513,0,0,1-2.107,1.634A1.607,1.607,0,0,1,21.758,26.769Z" transform="translate(11.077 11.077)"/>
</svg>
