<svg data-name="01-Brand/icon/customization" xmlns="http://www.w3.org/2000/svg" width="34.956" height="46.714" viewBox="0 0 34.956 46.714">
    <path d="M32.873 34.9a11.527 11.527 0 0 1 .435 3.168 11.713 11.713 0 0 1-11.7 11.7 11.559 11.559 0 0 1-5.084-1.165l1.143-2.373a9.083 9.083 0 0 0 13.009-8.176 9.3 9.3 0 0 0-.337-2.449zm-3.255-10.44.5 3.636 2.624-2.471 1.8 1.916-2.493 2.351 3.026.446-.381 2.6-5.313-.784-1.755 1.756a7.23 7.23 0 0 1 1.3 4.137 7.313 7.313 0 1 1-3.157-6l1.97-1.97-.718-5.269zm-8.012 1.916a11.85 11.85 0 0 1 3.331.479l-.751 2.526a8.908 8.908 0 0 0-2.58-.37 9.071 9.071 0 0 0-7.566 14.054l-2.2 1.448a11.7 11.7 0 0 1 9.765-18.137zm0 7.022a4.736 4.736 0 1 0 4.082 2.449l-1.894 1.894c.011.109.033.218.033.327a2.221 2.221 0 1 1-2.221-2.221 1.661 1.661 0 0 1 .327.033l1.894-1.894a4.658 4.658 0 0 0-2.222-.586zm1.284-30.34a9.634 9.634 0 0 1 9.624 9.624A9.526 9.526 0 0 1 31 17.842c8.557 3.984 9.264 12.421 9.264 14.991h-2.623c0-2.874-.827-9.82-8.415-12.911a9.569 9.569 0 0 1-12.726-.055c-7.719 3.059-8.557 10.081-8.557 12.966H5.308c0-2.591.719-11.115 9.428-15.056A9.611 9.611 0 0 1 22.89 3.058zm0 2.624a7 7 0 1 0 7 7 7.009 7.009 0 0 0-7-7z" transform="translate(-5.308 -3.058)" style="fill:#0047cc"/>
</svg>
