<svg data-name="01-Brand/icon/flexibility" xmlns="http://www.w3.org/2000/svg" width="50" height="50" viewBox="0 0 50 50">
    <path d="m17.993 7.7-2.024 15.835-4.655-3.575a19.533 19.533 0 0 0-.694 20.288 19.288 19.288 0 0 0 19.361 9.8l.41 3.214a26.585 26.585 0 0 1-2.916.183A22.475 22.475 0 0 1 7.812 41.831a22.76 22.76 0 0 1 .932-23.848l-5.39-4.138zM48.9 15.05a22.8 22.8 0 0 1-.922 23.85l5.377 4.134-14.639 6.15 2.024-15.838 4.667 3.586a19.533 19.533 0 0 0 .693-20.287 19.278 19.278 0 0 0-19.361-9.8l-.41-3.214A22.454 22.454 0 0 1 48.9 15.05zm-5.678 24.286-.6 4.711 4.349-1.826zM35.848 21.38l2.12 2.435L24.848 35.5l-6.133-7.913 2.53-2 4.024 5.2zm-21.759-8.533L9.74 14.673l3.747 2.885z" transform="translate(-3.354 -3.444)" style="fill:#0047cc"/>
</svg>
