<svg data-name="01-Brand/icon/phone_call" xmlns="http://www.w3.org/2000/svg" width="50" height="49.988" viewBox="0 0 50 49.988">
    <path d="M45.774 54.895c-6.765-.324-15.735-5.882-25.382-15.47S5.216 20.778 4.922 14.16a2.471 2.471 0 0 1 .178-1.117 24.176 24.176 0 0 1 7.174-7.353 4.265 4.265 0 0 1 2.941-.735 2.941 2.941 0 0 1 1.912 1.235c1.029 1.353 5.735 8.559 6.588 9.882a2.941 2.941 0 0 1 .471 1.559 5.382 5.382 0 0 1-.647 2.471l-.265.529a25.441 25.441 0 0 1-2.029 3.706A48.911 48.911 0 0 0 27.6 32.19a61.41 61.41 0 0 0 7.47 6.529h.441c1.059-.588 3.441-1.941 4.206-2.323a5.059 5.059 0 0 1 2.353-.647 3.147 3.147 0 0 1 1.618.441c1.235.794 8.823 5.882 9.941 6.588a2.941 2.941 0 0 1 1.265 1.971 4.323 4.323 0 0 1-.559 2.618l-.265.441a25.411 25.411 0 0 1-7.235 7.029 3.324 3.324 0 0 1-1.059.059zM14.627 7.866a1.382 1.382 0 0 0-.765.206 22.882 22.882 0 0 0-5.882 5.883c.265 5.882 5.47 14.176 14.706 23.323S40.127 51.63 46.009 51.983a22.617 22.617 0 0 0 5.882-6.029 1.912 1.912 0 0 0 .294-.824c-1.265-.853-8.617-5.882-9.853-6.529a2.118 2.118 0 0 0-1.059.294l-4.088 2.294-1.176.676a1.471 1.471 0 0 1-1.588 0l-.824-.618a60.088 60.088 0 0 1-7.853-6.882s-7.588-7.676-7.588-10.353a2.265 2.265 0 0 1 .588-1.324 17.647 17.647 0 0 0 1.856-3.351l.294-.647a2.176 2.176 0 0 0 .324-1.029c-.824-1.324-5.559-8.353-6.47-9.794z" transform="translate(-4.915 -4.925)" style="fill:#0047cc"/>
</svg>
